<svg id="Layer_1" data-name="Layer 1" xmlns="http://www.w3.org/2000/svg" xmlns:xlink="http://www.w3.org/1999/xlink" viewBox="0 0 2077.69 1391.65"><defs><style>.cls-1{fill:#33337e;}.cls-2{fill:url(#linear-gradient);}.cls-3{fill:url(#linear-gradient-2);}.cls-4{fill:url(#linear-gradient-3);}</style><linearGradient id="linear-gradient" x1="899.54" y1="1502.47" x2="917.73" y2="1495.66" gradientTransform="matrix(93.06, 0, 0, -158.74, -82567.19, 238972.83)" gradientUnits="userSpaceOnUse"><stop offset="0" stop-color="#54cff9"/><stop offset="1" stop-color="#349bf6"/></linearGradient><linearGradient id="linear-gradient-2" x1="903.32" y1="1505.8" x2="921.5" y2="1498.99" gradientTransform="matrix(80.78, 0, 0, -68.45, -71426.07, 103438.84)" xlink:href="#linear-gradient"/><linearGradient id="linear-gradient-3" x1="896.25" y1="1500.58" x2="914.44" y2="1493.77" gradientTransform="matrix(80.74, 0, 0, -68.42, -71540.74, 103491.45)" xlink:href="#linear-gradient"/></defs><title>logobot</title><g id="Component_3_1" data-name="Component 3 1"><g id="Group_143" data-name="Group 143"><path id="Path_4" data-name="Path 4" class="cls-1" d="M621.31,1476a44.14,44.14,0,0,0-20.48-14.1,73.4,73.4,0,0,0-24.44-4.58,64,64,0,0,0-13.92,1.6,53.12,53.12,0,0,0-13.51,5,29.37,29.37,0,0,0-10.33,8.94,22.67,22.67,0,0,0-4,13.51,22.42,22.42,0,0,0,9.54,19.48,90.35,90.35,0,0,0,24,11.53q14.5,4.76,31.21,9.53a128.69,128.69,0,0,1,31.21,13.52,73.92,73.92,0,0,1,24.05,23.45,71.52,71.52,0,0,1,9.54,39.35,90.45,90.45,0,0,1-8.75,40.93,83,83,0,0,1-23.64,29,100.44,100.44,0,0,1-34.58,17.07,158.44,158.44,0,0,1-92.4-2.78,127.32,127.32,0,0,1-43.72-27l44.12-48.49a64.16,64.16,0,0,0,24,19.67,67.58,67.58,0,0,0,45.31,5.17,50,50,0,0,0,13.91-5.36,30.2,30.2,0,0,0,9.94-9.14,22.87,22.87,0,0,0,3.77-13.12,23.83,23.83,0,0,0-9.75-20.07,90.08,90.08,0,0,0-24.45-12.52q-14.7-5.16-31.79-10.33a142.9,142.9,0,0,1-31.8-13.91,76.58,76.58,0,0,1-24.44-23,65.9,65.9,0,0,1-9.76-37.76,84.63,84.63,0,0,1,8.94-39.74,86.45,86.45,0,0,1,23.86-28.62,103.72,103.72,0,0,1,34.37-17.29,141.31,141.31,0,0,1,40.14-5.76,157.82,157.82,0,0,1,46.1,6.76,106.4,106.4,0,0,1,40.14,22.65Z" transform="translate(-461.16 -304.18)"/><path id="Path_5" data-name="Path 5" class="cls-1" d="M1008.42,1688.62H837.91a184.65,184.65,0,0,1-61-9.75,136.36,136.36,0,0,1-48.28-28.42,132.12,132.12,0,0,1-31.8-45.31,151.64,151.64,0,0,1-11.52-60.81A143.31,143.31,0,0,1,697,1485.9a138.73,138.73,0,0,1,32-45.7,144.2,144.2,0,0,1,47.7-29.61,162.76,162.76,0,0,1,58.82-10.53,160,160,0,0,1,58.82,10.73,146.92,146.92,0,0,1,47.69,29.8,139.45,139.45,0,0,1,32,45.51,142.15,142.15,0,0,1,11.7,58.23,127.73,127.73,0,0,1-3.38,29.41,113.07,113.07,0,0,1-10.13,27,88.12,88.12,0,0,1-42.53,39.35v.79h78.69ZM749.68,1544.36a86.62,86.62,0,0,0,52.46,80.28,85.93,85.93,0,0,0,66.77,0,87.43,87.43,0,0,0,0-160.56,85.76,85.76,0,0,0-66.77,0,86.62,86.62,0,0,0-52.46,80.28Z" transform="translate(-461.16 -304.18)"/><path id="Path_6" data-name="Path 6" class="cls-1" d="M1031.46,1407.21h62v224.16h114.86v57.23H1031.46Z" transform="translate(-461.16 -304.18)"/></g><g id="Group_142" data-name="Group 142"><path id="Path_7" data-name="Path 7" class="cls-1" d="M1560.3,1465.27a80.47,80.47,0,0,0-31.41-25.64,92.64,92.64,0,0,0-38.94-8.55,97.5,97.5,0,0,0-43.13,9.55,108.08,108.08,0,0,0-34,25.63,117.43,117.43,0,0,0-22.26,37.37,125.31,125.31,0,0,0-8,44.31,129.81,129.81,0,0,0,8,45.91,114.62,114.62,0,0,0,22.05,37,103.64,103.64,0,0,0,33.79,24.83,109.08,109.08,0,0,0,89.62-1,104.49,104.49,0,0,0,35.37-29.22l25,21.07a115.73,115.73,0,0,1-45.89,37.36,148,148,0,0,1-60.62,11.93,143.15,143.15,0,0,1-56.44-11.14,139.22,139.22,0,0,1-45.52-30.79,142.19,142.19,0,0,1-30.19-46.7,156.53,156.53,0,0,1-10.94-59.23,158.32,158.32,0,0,1,10.55-58A139.75,139.75,0,0,1,1490,1400.09a150.06,150.06,0,0,1,55,10.34,101.47,101.47,0,0,1,44.29,33.79Z" transform="translate(-461.16 -304.18)"/><path id="Path_8" data-name="Path 8" class="cls-1" d="M1625.07,1526.47a87.62,87.62,0,0,1,34-21.66,119,119,0,0,1,39.94-7q41.32,0,59.61,19.48t18.28,59.22v79.88q0,8,.8,16.49t2,15.71h-29.81a65.24,65.24,0,0,1-1.79-14.12c-.14-5.16-.2-9.75-.2-13.71h-.8a73,73,0,0,1-24.46,23.45,70.33,70.33,0,0,1-36.75,9.14,97.57,97.57,0,0,1-26.82-3.57,67.06,67.06,0,0,1-21.88-10.54,52,52,0,0,1-14.89-17.3,49.38,49.38,0,0,1-5.57-23.83,51.77,51.77,0,0,1,11.93-36.17,72.2,72.2,0,0,1,29.62-19.47,145.52,145.52,0,0,1,38.14-8q20.49-1.57,37.55-1.59h11.93v-5.56q0-20.27-12.12-30.6a50.86,50.86,0,0,0-34-10.34,91.24,91.24,0,0,0-29.61,5,71,71,0,0,0-25.63,15.3Zm89.82,72.73a111.13,111.13,0,0,0-47.31,8.35A28.35,28.35,0,0,0,1650.1,1635q0,17.49,11.71,24.84a54,54,0,0,0,29.2,7.35,57,57,0,0,0,23.65-4.57,49.7,49.7,0,0,0,16.89-12.12,52.19,52.19,0,0,0,10.33-17.69,72.09,72.09,0,0,0,4-21.66V1599.2Z" transform="translate(-461.16 -304.18)"/><path id="Path_9" data-name="Path 9" class="cls-1" d="M1823.8,1546.74q0-12.71-.79-23.84t-.81-20.28h29.43q0,7.56.39,15.12c.26,5,.41,10.21.41,15.5h.78a53.65,53.65,0,0,1,9-13.11,64,64,0,0,1,13.7-11.33,72.9,72.9,0,0,1,17.89-7.94,73.87,73.87,0,0,1,21.46-3,81.63,81.63,0,0,1,31.59,5.57,59.35,59.35,0,0,1,22.06,15.5,62.87,62.87,0,0,1,12.91,24,108,108,0,0,1,4.17,30.8v114.87h-31V1577a59.46,59.46,0,0,0-10.34-37q-10.33-13.52-32.18-13.52a60.4,60.4,0,0,0-26,5.16,46.26,46.26,0,0,0-17.89,14.71,65.48,65.48,0,0,0-10.33,22.66,116.71,116.71,0,0,0-3.39,29v90.62h-31Z" transform="translate(-461.16 -304.18)"/><path id="Path_10" data-name="Path 10" class="cls-1" d="M2119.49,1688.63h-34.17l-75.92-186h36.17l58,145.87h.79l55.24-145.87H2193Z" transform="translate(-461.16 -304.18)"/><path id="Path_11" data-name="Path 11" class="cls-1" d="M2214.08,1526.47a87.62,87.62,0,0,1,34-21.66,118.89,118.89,0,0,1,39.93-7q41.34,0,59.62,19.48t18.28,59.22v79.88q0,8,.8,16.49t2,15.71h-29.8a64.64,64.64,0,0,1-1.8-14.12c-.14-5.16-.2-9.75-.2-13.71h-.76a72.93,72.93,0,0,1-24.45,23.45,70.47,70.47,0,0,1-36.76,9.14,97.69,97.69,0,0,1-26.83-3.57,67.11,67.11,0,0,1-21.87-10.54,51.9,51.9,0,0,1-14.9-17.3,49.49,49.49,0,0,1-5.57-23.83,51.77,51.77,0,0,1,11.93-36.17,72.23,72.23,0,0,1,29.61-19.47,145.58,145.58,0,0,1,38.16-8q20.48-1.57,37.55-1.59h11.92v-5.56q0-20.27-12.13-30.6a50.81,50.81,0,0,0-34-10.34,91.24,91.24,0,0,0-29.61,5,71,71,0,0,0-25.63,15.3Zm89.82,72.73a111.25,111.25,0,0,0-47.3,8.36,28.3,28.3,0,0,0-17.48,27.42q0,17.49,11.7,24.84a54.05,54.05,0,0,0,29.22,7.35,57,57,0,0,0,23.65-4.56,50,50,0,0,0,16.89-12.13,52.35,52.35,0,0,0,10.33-17.69,72.66,72.66,0,0,0,4-21.66v-11.92Z" transform="translate(-461.16 -304.18)"/><path id="Path_12" data-name="Path 12" class="cls-1" d="M2416.78,1639.74a78.1,78.1,0,0,0,20.07,18.29,51.7,51.7,0,0,0,27.62,6.74,68.11,68.11,0,0,0,14.51-1.59,43.13,43.13,0,0,0,13.31-5.16,29.44,29.44,0,0,0,9.53-9,22.65,22.65,0,0,0,3.58-12.9,20.83,20.83,0,0,0-3.38-12.32,29.56,29.56,0,0,0-8.95-8.15,49.73,49.73,0,0,0-12.71-5.36q-7.16-2-14.71-3.59-13.11-2.77-25-6.34a81.85,81.85,0,0,1-20.85-9.33,44.05,44.05,0,0,1-14.32-14.92,45.87,45.87,0,0,1-5.37-23.44,47.06,47.06,0,0,1,6-23.86A51.63,51.63,0,0,1,2422,1511.8a77.89,77.89,0,0,1,22.24-10.34,90.89,90.89,0,0,1,25.44-3.57,85.31,85.31,0,0,1,36.77,7.94,57.31,57.31,0,0,1,26.43,25.85l-25.84,17.1a48.12,48.12,0,0,0-15.69-16.1,43.4,43.4,0,0,0-23.65-6.15,54.15,54.15,0,0,0-12.92,1.59,40.42,40.42,0,0,0-11.7,4.76,28.06,28.06,0,0,0-8.55,8.15,19.62,19.62,0,0,0-3.37,11.33,14.54,14.54,0,0,0,3.77,10.13,33.16,33.16,0,0,0,10.32,7.35,89.91,89.91,0,0,0,15.12,5.57q8.55,2.38,17.68,4a175.58,175.58,0,0,1,23.46,6.16,68,68,0,0,1,19.48,10.13,45,45,0,0,1,13.11,15.91,52,52,0,0,1,4.77,23.44,53.63,53.63,0,0,1-6.34,27,52.61,52.61,0,0,1-16.88,18.09,74.47,74.47,0,0,1-23.85,10.14,117.19,117.19,0,0,1-27.22,3.17,104.55,104.55,0,0,1-41.15-7.35,74.56,74.56,0,0,1-31.19-27.23Z" transform="translate(-461.16 -304.18)"/></g></g><g id="Group_81" data-name="Group 81"><path id="Path_13" data-name="Path 13" class="cls-2" d="M1712,721l-227-113.52,218.86-175.08a66.74,66.74,0,1,0-83.39-104.22L1320.09,568.39a66.72,66.72,0,0,0,11.85,111.8l223.75,111.88-234,175.46a66.74,66.74,0,1,0,80.08,106.8h0l320.33-240.25A66.73,66.73,0,0,0,1712,721Z" transform="translate(-461.16 -304.18)"/><path id="Path_14" data-name="Path 14" class="cls-3" d="M2054,330.21A66.75,66.75,0,0,0,1960.43,318l-260.27,200.2a66.73,66.73,0,1,0,81,106.07l.37-.29,260.27-200.2A66.75,66.75,0,0,0,2054,330.21Z" transform="translate(-461.16 -304.18)"/><path id="Path_15" data-name="Path 15" class="cls-4" d="M1335.94,780a66.73,66.73,0,0,0-93.58-12.2h0L982.09,968a66.73,66.73,0,1,0,81.38,105.79h0l260.27-200.2A66.74,66.74,0,0,0,1336,780Z" transform="translate(-461.16 -304.18)"/></g></svg>