<svg id="Layer_1" data-name="Layer 1" xmlns="http://www.w3.org/2000/svg" xmlns:xlink="http://www.w3.org/1999/xlink" viewBox="0 0 900.16 634.33"><defs><style>.cls-1{fill:url(#linear-gradient);}.cls-2{fill:url(#linear-gradient-2);}.cls-3{fill:url(#linear-gradient-3);}</style><linearGradient id="linear-gradient" x1="728.05" y1="710.6" x2="520.77" y2="358.22" gradientUnits="userSpaceOnUse"><stop offset="0" stop-color="#049bf6"/><stop offset="1" stop-color="#57d2fc"/></linearGradient><linearGradient id="linear-gradient-2" x1="1025.24" y1="535.79" x2="817.95" y2="183.4" xlink:href="#linear-gradient"/><linearGradient id="linear-gradient-3" x1="434.17" y1="883.48" x2="226.88" y2="531.09" xlink:href="#linear-gradient"/></defs><title>logo</title><path class="cls-1" d="M747.76,485.31,563.94,393.4l177.2-141.76a54,54,0,1,0-67.51-84.38L430.49,361.77a54,54,0,0,0,9.59,90.52l181.16,90.58-189.41,142a54,54,0,1,0,64.83,86.45L756,576.86a54,54,0,0,0-8.25-91.55Z" transform="translate(-135.73 -147.86)"/><path class="cls-2" d="M1024.69,169a54,54,0,0,0-75.77-9.89L738.2,321.16a54,54,0,0,0,65.89,85.65l210.72-162.09A54,54,0,0,0,1024.69,169Z" transform="translate(-135.73 -147.86)"/><path class="cls-3" d="M443.31,533.11a54,54,0,0,0-75.77-9.88L156.82,685.32A54,54,0,1,0,222.71,771L433.43,608.88A54,54,0,0,0,443.31,533.11Z" transform="translate(-135.73 -147.86)"/></svg>