<svg id="Layer_1" data-name="Layer 1" xmlns="http://www.w3.org/2000/svg" xmlns:xlink="http://www.w3.org/1999/xlink" viewBox="0 0 2634.52 1054.57"><defs><style>.cls-1{fill:url(#linear-gradient);}.cls-2{fill:url(#linear-gradient-2);}.cls-3{fill:url(#linear-gradient-3);}.cls-4{fill:#33337e;}</style><linearGradient id="linear-gradient" x1="896.63" y1="1491.85" x2="887.25" y2="1501.19" gradientTransform="matrix(31.29, 0, 0, -53.29, -27061.51, 80685.91)" gradientUnits="userSpaceOnUse"><stop offset="0" stop-color="#049bf6"/><stop offset="1" stop-color="#57d2fc"/></linearGradient><linearGradient id="linear-gradient-2" x1="910.48" y1="1490.51" x2="899.66" y2="1512.19" gradientTransform="matrix(27.18, 0, 0, -23.02, -23330.75, 35255.22)" xlink:href="#linear-gradient"/><linearGradient id="linear-gradient-3" x1="881.55" y1="1470.51" x2="870.74" y2="1492.19" gradientTransform="matrix(27.18, 0, 0, -23.02, -23379.96, 35286.07)" xlink:href="#linear-gradient"/></defs><title>logoright</title><g id="Group_1" data-name="Group 1"><path id="Path_1" data-name="Path 1" class="cls-1" d="M1019.64,863.84l-259.83-130,250.47-200.36a76.38,76.38,0,0,0-95.41-119.27l-343.69,275a76.38,76.38,0,0,0,13.57,128l256,128L573.11,1146a76.38,76.38,0,1,0,90,123.4c.54-.4,1.08-.8,1.61-1.21l366.57-274.94a76.38,76.38,0,0,0-11.63-129.41Z" transform="translate(-153.36 -386.86)"/><path id="Path_2" data-name="Path 2" class="cls-2" d="M1411.07,416.67a76.38,76.38,0,0,0-107.1-14L1006.12,631.82a76.38,76.38,0,0,0,90.74,122.88c.8-.59,1.58-1.2,2.36-1.82l297.85-229.12A76.37,76.37,0,0,0,1411.07,416.67Z" transform="translate(-153.36 -386.86)"/><path id="Path_3" data-name="Path 3" class="cls-3" d="M589.3,931.4a76.35,76.35,0,0,0-107.07-14l0,0L184.36,1146.56a76.37,76.37,0,0,0,90.76,122.86q1.19-.87,2.34-1.8L575.31,1038.5a76.36,76.36,0,0,0,14-107.07Z" transform="translate(-153.36 -386.86)"/></g><g id="Group_2" data-name="Group 2"><path id="Path_4" data-name="Path 4" class="cls-4" d="M1783.21,844.37A73.86,73.86,0,0,0,1749,820.78a122.76,122.76,0,0,0-40.88-7.65,107.93,107.93,0,0,0-23.28,2.66,89.64,89.64,0,0,0-22.59,8.31,49.28,49.28,0,0,0-17.29,15,37.87,37.87,0,0,0-6.65,22.59,37.47,37.47,0,0,0,16,32.57,150.74,150.74,0,0,0,40.22,19.28q24.26,8,52.18,16a215.08,215.08,0,0,1,52.19,22.59,123.71,123.71,0,0,1,40.21,39.22,119.56,119.56,0,0,1,15.94,65.8,151.23,151.23,0,0,1-14.62,68.46,138.85,138.85,0,0,1-39.56,48.52,167.86,167.86,0,0,1-57.83,28.58,265.17,265.17,0,0,1-154.61-4.65,213.14,213.14,0,0,1-73.15-45.2l73.78-81.1a107.45,107.45,0,0,0,40.21,32.9,113,113,0,0,0,75.78,8.64,83.16,83.16,0,0,0,23.27-9,50.28,50.28,0,0,0,16.63-15.28,38.33,38.33,0,0,0,6.32-22,39.91,39.91,0,0,0-16.28-33.56,150.94,150.94,0,0,0-40.88-21q-24.6-8.62-53.2-17.27a238.35,238.35,0,0,1-53.2-23.28,128.06,128.06,0,0,1-40.88-38.55,110.2,110.2,0,0,1-16.29-63.17,141.44,141.44,0,0,1,15-66.5,144.45,144.45,0,0,1,39.9-47.86A173.26,173.26,0,0,1,1642.83,727a235.46,235.46,0,0,1,67.13-9.63,264,264,0,0,1,77.11,11.29,178.13,178.13,0,0,1,67.13,37.89Z" transform="translate(-153.36 -386.86)"/><path id="Path_5" data-name="Path 5" class="cls-4" d="M2430.63,1200H2145.46a308.48,308.48,0,0,1-102-16.28,227.69,227.69,0,0,1-80.76-47.53,220.78,220.78,0,0,1-53.2-75.77,253.44,253.44,0,0,1-19.27-101.69A239.8,239.8,0,0,1,1909.82,861a232.23,232.23,0,0,1,53.5-76.47,241.15,241.15,0,0,1,79.8-49.52,272,272,0,0,1,98.37-17.61,267.61,267.61,0,0,1,98.37,17.94,245.81,245.81,0,0,1,79.8,49.87,233.22,233.22,0,0,1,53.5,76.11,237.57,237.57,0,0,1,19.61,97.37,213.28,213.28,0,0,1-5.65,49.13,188.71,188.71,0,0,1-16.94,45.2,147.35,147.35,0,0,1-71.12,65.8v1.33h131.6ZM1997.9,958.72A144.85,144.85,0,0,0,2085.65,1093a143.74,143.74,0,0,0,111.67,0,146.22,146.22,0,0,0,0-268.53,143.65,143.65,0,0,0-111.67,0,146.93,146.93,0,0,0-45.54,30.91,145.24,145.24,0,0,0-42.21,103.35Z" transform="translate(-153.36 -386.86)"/><path id="Path_6" data-name="Path 6" class="cls-4" d="M2469.16,729.33h103.69v374.88H2765v95.73H2469.16Z" transform="translate(-153.36 -386.86)"/></g><g id="Group_3" data-name="Group 3"><path id="Path_7" data-name="Path 7" class="cls-4" d="M2201.34,1303.11a48.25,48.25,0,0,0-18.82-15.36,55.53,55.53,0,0,0-23.27-5.12,58.54,58.54,0,0,0-25.86,5.72,64.82,64.82,0,0,0-20.36,15.36,70.35,70.35,0,0,0-13.3,22.39,75.06,75.06,0,0,0-4.77,26.6,77.79,77.79,0,0,0,4.77,27.52,68.79,68.79,0,0,0,13.22,22.16,61.85,61.85,0,0,0,20.25,15,65.33,65.33,0,0,0,53.71-.6,62.55,62.55,0,0,0,21.2-17.5l15,12.63a69.44,69.44,0,0,1-27.5,22.4,88.59,88.59,0,0,1-36.34,7.14,85.59,85.59,0,0,1-33.83-6.65,83.12,83.12,0,0,1-27.28-18.45,85.29,85.29,0,0,1-18.11-28,93.68,93.68,0,0,1-6.54-35.49,94.83,94.83,0,0,1,6.31-34.78,83.76,83.76,0,0,1,79.45-53.85,90,90,0,0,1,33,6.2,60.85,60.85,0,0,1,26.6,20.25Z" transform="translate(-153.36 -386.86)"/><path id="Path_8" data-name="Path 8" class="cls-4" d="M2240.18,1339.79a52.47,52.47,0,0,1,20.36-13,71.28,71.28,0,0,1,23.94-4.17,47.21,47.21,0,0,1,35.73,11.64,50.23,50.23,0,0,1,10.95,35.49v47.88q0,4.77.48,9.89c.32,3.42.73,6.55,1.2,9.41H2315a38.3,38.3,0,0,1-1.08-8.46c-.09-3.09-.12-5.83-.12-8.21h-.47a43.63,43.63,0,0,1-14.64,14,42.27,42.27,0,0,1-22,5.48,58.3,58.3,0,0,1-16.08-2.14,40.1,40.1,0,0,1-13.11-6.32,31,31,0,0,1-8.93-10.36,29.52,29.52,0,0,1-3.33-14.28,31.06,31.06,0,0,1,7.15-21.61,43.33,43.33,0,0,1,17.76-11.64,87.18,87.18,0,0,1,22.86-4.77q12.27-.95,22.51-1h7.15v-3.32a22.78,22.78,0,0,0-7.27-18.29,30.44,30.44,0,0,0-20.36-6.2,54.45,54.45,0,0,0-17.76,3,42.48,42.48,0,0,0-15.36,9.16Zm53.83,43.59a66.79,66.79,0,0,0-28.35,5,17,17,0,0,0-10.47,16.45,16.15,16.15,0,0,0,7,15,32.37,32.37,0,0,0,17.5,4.41,34.24,34.24,0,0,0,14.19-2.75,30,30,0,0,0,10.12-7.26,31.37,31.37,0,0,0,6.18-10.61,42.9,42.9,0,0,0,2.38-13v-7.15Z" transform="translate(-153.36 -386.86)"/><path id="Path_9" data-name="Path 9" class="cls-4" d="M2359.27,1351.92q0-7.61-.46-14.28t-.48-12.15H2376q0,4.54.23,9.06c.15,3,.25,6.12.25,9.29h.47a32.21,32.21,0,0,1,5.37-7.86,37.93,37.93,0,0,1,8.21-6.78,43.79,43.79,0,0,1,10.72-4.76,44.5,44.5,0,0,1,12.87-1.79A49.22,49.22,0,0,1,2433,1326a35.71,35.71,0,0,1,13.3,9.3,37.85,37.85,0,0,1,7.74,14.41,64.76,64.76,0,0,1,2.5,18.47V1437H2438v-66.93a35.59,35.59,0,0,0-6.2-22.14,22.73,22.73,0,0,0-19.3-8.1,36.26,36.26,0,0,0-15.6,3.09,27.73,27.73,0,0,0-10.72,8.81,39.2,39.2,0,0,0-6.2,13.59,70.21,70.21,0,0,0-2,17.39V1437h-18.58Z" transform="translate(-153.36 -386.86)"/><path id="Path_10" data-name="Path 10" class="cls-4" d="M2536.49,1437H2516l-45.5-111.49h21.61l34.78,87.43h.47l33.11-87.43h19.95Z" transform="translate(-153.36 -386.86)"/><path id="Path_11" data-name="Path 11" class="cls-4" d="M2593.2,1339.79a52.58,52.58,0,0,1,20.37-13,71.28,71.28,0,0,1,23.94-4.17,47.18,47.18,0,0,1,35.72,11.64,50.29,50.29,0,0,1,11,35.49v47.88q0,4.77.48,9.89c.32,3.42.72,6.55,1.2,9.41H2668a38.9,38.9,0,0,1-1.08-8.46c-.08-3.09-.11-5.83-.11-8.21h-.47a43.66,43.66,0,0,1-14.65,14,42.21,42.21,0,0,1-22,5.48,58.2,58.2,0,0,1-16.08-2.14,40,40,0,0,1-13.1-6.32,31,31,0,0,1-8.93-10.36,29.51,29.51,0,0,1-3.32-14.28,31,31,0,0,1,7.15-21.61,43.3,43.3,0,0,1,17.75-11.64,87.32,87.32,0,0,1,22.88-4.77q12.25-.95,22.51-1h7.14v-3.32a22.74,22.74,0,0,0-7.26-18.29,30.45,30.45,0,0,0-20.37-6.2,54.43,54.43,0,0,0-17.75,3,42.48,42.48,0,0,0-15.36,9.16Zm53.85,43.59a66.82,66.82,0,0,0-28.35,5,17,17,0,0,0-10.47,16.45,16.2,16.2,0,0,0,7,15,32.45,32.45,0,0,0,17.5,4.41,34.19,34.19,0,0,0,14.18-2.75,29.94,29.94,0,0,0,10.13-7.26,31.37,31.37,0,0,0,6.18-10.61,43.52,43.52,0,0,0,2.38-13v-7.15Z" transform="translate(-153.36 -386.86)"/><path id="Path_12" data-name="Path 12" class="cls-4" d="M2714.69,1407.68a46.84,46.84,0,0,0,12,11,31,31,0,0,0,16.63,4,40.94,40.94,0,0,0,8.69-1,26,26,0,0,0,8-3.09,17.7,17.7,0,0,0,5.72-5.37,13.56,13.56,0,0,0,2.15-7.73,12.51,12.51,0,0,0-2-7.38,17.8,17.8,0,0,0-5.37-4.89,29.79,29.79,0,0,0-7.61-3.21q-4.29-1.2-8.82-2.14-7.85-1.67-15-3.81a48.9,48.9,0,0,1-12.5-5.59,26.4,26.4,0,0,1-8.58-8.94,27.48,27.48,0,0,1-3.21-14,28.17,28.17,0,0,1,3.58-14.3,31.09,31.09,0,0,1,9.52-10.24,47.06,47.06,0,0,1,13.3-6.2,54.64,54.64,0,0,1,15.25-2.14,51.12,51.12,0,0,1,22,4.75,34.35,34.35,0,0,1,15.85,15.48l-15.5,10.24a28.79,28.79,0,0,0-9.41-9.66,26.07,26.07,0,0,0-14.18-3.69,32.69,32.69,0,0,0-7.75,1,24.2,24.2,0,0,0-7,2.86,16.59,16.59,0,0,0-5.12,4.89,11.77,11.77,0,0,0-2,6.78,8.76,8.76,0,0,0,2.26,6.07,19.92,19.92,0,0,0,6.19,4.4,54,54,0,0,0,9.06,3.33q5.11,1.42,10.6,2.38a103.61,103.61,0,0,1,14.07,3.69,41,41,0,0,1,11.64,6.06,27.07,27.07,0,0,1,7.86,9.53,31.23,31.23,0,0,1,2.86,14,32.15,32.15,0,0,1-3.81,16.19,31.46,31.46,0,0,1-10.12,10.84,44.36,44.36,0,0,1-14.3,6.07,70.53,70.53,0,0,1-16.31,1.91,62.62,62.62,0,0,1-24.65-4.41,44.53,44.53,0,0,1-18.69-16.31Z" transform="translate(-153.36 -386.86)"/></g></svg>